<mxfile host="app.diagrams.net" agent="Mozilla/5.0 (Macintosh; Intel Mac OS X 10.15; rv:136.0) Gecko/20100101 Firefox/136.0" version="26.1.0">
  <diagram name="Page-1" id="6hncwjpWroOLeo7s6sma">
    <mxGraphModel dx="2074" dy="1076" grid="1" gridSize="10" guides="1" tooltips="1" connect="1" arrows="1" fold="1" page="1" pageScale="1" pageWidth="850" pageHeight="1100" math="0" shadow="0">
      <root>
        <mxCell id="0" />
        <mxCell id="1" parent="0" />
        <mxCell id="bqUPTLG8M7z-n8yyySJV-2" value="AWS Cloud" style="points=[[0,0],[0.25,0],[0.5,0],[0.75,0],[1,0],[1,0.25],[1,0.5],[1,0.75],[1,1],[0.75,1],[0.5,1],[0.25,1],[0,1],[0,0.75],[0,0.5],[0,0.25]];outlineConnect=0;gradientColor=none;html=1;whiteSpace=wrap;fontSize=12;fontStyle=0;container=1;pointerEvents=0;collapsible=0;recursiveResize=0;shape=mxgraph.aws4.group;grIcon=mxgraph.aws4.group_aws_cloud_alt;strokeColor=#232F3E;fillColor=none;verticalAlign=top;align=left;spacingLeft=30;fontColor=#232F3E;dashed=0;" vertex="1" parent="1">
          <mxGeometry x="60" y="230" width="760" height="480" as="geometry" />
        </mxCell>
        <mxCell id="bqUPTLG8M7z-n8yyySJV-3" value="&lt;div&gt;&lt;font style=&quot;font-size: 10px;&quot;&gt;OpenRemote&lt;/font&gt;&lt;/div&gt;&lt;div&gt;&lt;font style=&quot;font-size: 10px;&quot;&gt;t4g.medium&lt;/font&gt;&lt;/div&gt;" style="sketch=0;points=[[0,0,0],[0.25,0,0],[0.5,0,0],[0.75,0,0],[1,0,0],[0,1,0],[0.25,1,0],[0.5,1,0],[0.75,1,0],[1,1,0],[0,0.25,0],[0,0.5,0],[0,0.75,0],[1,0.25,0],[1,0.5,0],[1,0.75,0]];outlineConnect=0;fontColor=#232F3E;fillColor=#ED7100;strokeColor=#ffffff;dashed=0;verticalLabelPosition=bottom;verticalAlign=top;align=center;html=1;fontSize=12;fontStyle=0;aspect=fixed;shape=mxgraph.aws4.resourceIcon;resIcon=mxgraph.aws4.ec2;" vertex="1" parent="bqUPTLG8M7z-n8yyySJV-2">
          <mxGeometry x="330" y="120" width="78" height="78" as="geometry" />
        </mxCell>
        <mxCell id="bqUPTLG8M7z-n8yyySJV-13" style="edgeStyle=orthogonalEdgeStyle;rounded=0;orthogonalLoop=1;jettySize=auto;html=1;" edge="1" parent="bqUPTLG8M7z-n8yyySJV-2" source="bqUPTLG8M7z-n8yyySJV-4" target="bqUPTLG8M7z-n8yyySJV-3">
          <mxGeometry relative="1" as="geometry" />
        </mxCell>
        <mxCell id="bqUPTLG8M7z-n8yyySJV-4" value="&lt;font style=&quot;color: rgb(0, 0, 0); font-size: 10px;&quot;&gt;General Purpose (gp3)&lt;/font&gt;&lt;div style=&quot;color: rgb(0, 0, 0);&quot;&gt;&lt;font style=&quot;font-size: 10px;&quot;&gt;30 GB Hard disk&lt;/font&gt;&lt;/div&gt;&lt;div&gt;&lt;font style=&quot;font-size: 10px;&quot;&gt;Root device&lt;/font&gt;&lt;/div&gt;" style="sketch=0;points=[[0,0,0],[0.25,0,0],[0.5,0,0],[0.75,0,0],[1,0,0],[0,1,0],[0.25,1,0],[0.5,1,0],[0.75,1,0],[1,1,0],[0,0.25,0],[0,0.5,0],[0,0.75,0],[1,0.25,0],[1,0.5,0],[1,0.75,0]];outlineConnect=0;fontColor=#232F3E;fillColor=#7AA116;strokeColor=#ffffff;dashed=0;verticalLabelPosition=bottom;verticalAlign=top;align=center;html=1;fontSize=12;fontStyle=0;aspect=fixed;shape=mxgraph.aws4.resourceIcon;resIcon=mxgraph.aws4.elastic_block_store;" vertex="1" parent="bqUPTLG8M7z-n8yyySJV-2">
          <mxGeometry x="530" y="66" width="58" height="58" as="geometry" />
        </mxCell>
        <mxCell id="bqUPTLG8M7z-n8yyySJV-5" value="&lt;font style=&quot;color: rgb(0, 0, 0); font-size: 10px;&quot;&gt;General Purpose (gp3)&lt;/font&gt;&lt;div style=&quot;color: rgb(0, 0, 0);&quot;&gt;&lt;font style=&quot;font-size: 10px;&quot;&gt;1 GB Hard disk&lt;/font&gt;&lt;/div&gt;&lt;div&gt;&lt;font style=&quot;font-size: 10px;&quot;&gt;Data device&lt;/font&gt;&lt;/div&gt;" style="sketch=0;points=[[0,0,0],[0.25,0,0],[0.5,0,0],[0.75,0,0],[1,0,0],[0,1,0],[0.25,1,0],[0.5,1,0],[0.75,1,0],[1,1,0],[0,0.25,0],[0,0.5,0],[0,0.75,0],[1,0.25,0],[1,0.5,0],[1,0.75,0]];outlineConnect=0;fontColor=#232F3E;fillColor=#7AA116;strokeColor=#ffffff;dashed=0;verticalLabelPosition=bottom;verticalAlign=top;align=center;html=1;fontSize=12;fontStyle=0;aspect=fixed;shape=mxgraph.aws4.resourceIcon;resIcon=mxgraph.aws4.elastic_block_store;" vertex="1" parent="bqUPTLG8M7z-n8yyySJV-2">
          <mxGeometry x="530" y="230" width="58" height="58" as="geometry" />
        </mxCell>
        <mxCell id="bqUPTLG8M7z-n8yyySJV-9" style="edgeStyle=orthogonalEdgeStyle;rounded=0;orthogonalLoop=1;jettySize=auto;html=1;" edge="1" parent="bqUPTLG8M7z-n8yyySJV-2" source="bqUPTLG8M7z-n8yyySJV-8" target="bqUPTLG8M7z-n8yyySJV-3">
          <mxGeometry relative="1" as="geometry" />
        </mxCell>
        <mxCell id="bqUPTLG8M7z-n8yyySJV-10" value="&lt;font style=&quot;font-size: 10px;&quot;&gt;Installs OpenRemote&lt;/font&gt;" style="edgeLabel;html=1;align=center;verticalAlign=middle;resizable=0;points=[];" vertex="1" connectable="0" parent="bqUPTLG8M7z-n8yyySJV-9">
          <mxGeometry x="0.1026" y="-2" relative="1" as="geometry">
            <mxPoint x="-13" y="-2" as="offset" />
          </mxGeometry>
        </mxCell>
        <mxCell id="bqUPTLG8M7z-n8yyySJV-8" value="" style="image;sketch=0;aspect=fixed;html=1;points=[];align=center;fontSize=12;image=img/lib/mscae/Docker.svg;" vertex="1" parent="bqUPTLG8M7z-n8yyySJV-2">
          <mxGeometry x="30" y="124" width="85.37" height="70" as="geometry" />
        </mxCell>
        <mxCell id="bqUPTLG8M7z-n8yyySJV-11" style="edgeStyle=orthogonalEdgeStyle;rounded=0;orthogonalLoop=1;jettySize=auto;html=1;entryX=0;entryY=0.5;entryDx=0;entryDy=0;entryPerimeter=0;" edge="1" parent="bqUPTLG8M7z-n8yyySJV-2" source="bqUPTLG8M7z-n8yyySJV-8" target="bqUPTLG8M7z-n8yyySJV-5">
          <mxGeometry relative="1" as="geometry">
            <Array as="points">
              <mxPoint x="73" y="260" />
              <mxPoint x="323" y="260" />
              <mxPoint x="323" y="259" />
            </Array>
          </mxGeometry>
        </mxCell>
        <mxCell id="bqUPTLG8M7z-n8yyySJV-12" value="&lt;font style=&quot;font-size: 10px;&quot;&gt;Data volumes mapped to Data device&lt;/font&gt;" style="edgeLabel;html=1;align=center;verticalAlign=middle;resizable=0;points=[];" vertex="1" connectable="0" parent="bqUPTLG8M7z-n8yyySJV-11">
          <mxGeometry x="-0.1291" y="2" relative="1" as="geometry">
            <mxPoint as="offset" />
          </mxGeometry>
        </mxCell>
        <mxCell id="bqUPTLG8M7z-n8yyySJV-14" style="edgeStyle=orthogonalEdgeStyle;rounded=0;orthogonalLoop=1;jettySize=auto;html=1;entryX=1;entryY=0.5;entryDx=0;entryDy=0;entryPerimeter=0;" edge="1" parent="bqUPTLG8M7z-n8yyySJV-2" source="bqUPTLG8M7z-n8yyySJV-5" target="bqUPTLG8M7z-n8yyySJV-3">
          <mxGeometry relative="1" as="geometry" />
        </mxCell>
      </root>
    </mxGraphModel>
  </diagram>
</mxfile>
